<svg id="레이어_1" data-name="레이어 1" xmlns="http://www.w3.org/2000/svg" viewBox="0 0 1024 1024"><defs><style>.cls-1{fill:#fff;stroke:#fff;stroke-miterlimit:10;}</style></defs><path class="cls-1" d="M246.51,709l25.89-77.78h27.82L326,709H304l-4.62-15.26h-26.1L268.64,709Zm48.12-30.73-8.05-26.1h-.65L278,678.28Z"/><path class="cls-1" d="M333.73,631.23h33.09c17.4,0,28.79,9.89,28.79,26.32,0,10.74-4.94,18.37-13.32,22.35L398.19,709H376L362.2,683.12h-8.05V709H333.73Zm28.36,35.88c7.74,0,12.14-2.79,12.14-9.56s-4.4-10-12.14-10h-7.94v19.55Z"/><path class="cls-1" d="M402.59,631.23h67v16.55H446.21V709H426V647.78H402.59Z"/><path class="cls-1" d="M477.9,631.23H511c17.4,0,28.79,9.89,28.79,26.32,0,10.74-4.94,18.37-13.32,22.35L542.35,709H520.11l-13.75-25.89h-8.05V709H477.9Zm28.35,35.88c7.74,0,12.14-2.79,12.14-9.56s-4.4-10-12.14-10h-7.94v19.55Z"/><path class="cls-1" d="M549,631.23h55.54v16.55H569.42v14.07h32.23v16.54H569.42v14.07h35V709H549Z"/><path class="cls-1" d="M646.33,647c-6.77,0-9.77,2.58-9.88,6.23-.11,4,3.54,6.24,10.74,7.74l6.45,1.5c16.76,3.55,24.17,11.71,24.27,23.64-.1,15.25-11.81,23.84-31.47,23.84-20.09,0-33.09-8.81-33.3-27.93h19.55c.32,7.2,5.37,11.07,13.43,11.07,7,0,10.74-2.9,10.85-7-.11-3.76-3.23-5.91-11.93-7.85l-7.84-1.71c-13.64-3-22-9.78-22-21.81-.11-14.72,12.89-24.6,31.15-24.6,18.69,0,30.4,10,30.51,25.14H657.18C656.75,650,653.31,647,646.33,647Z"/><path class="cls-1" d="M684,631.23h67v16.55H727.65V709H707.46V647.78H684Z"/><path class="cls-1" d="M756.55,699.77A10.26,10.26,0,0,1,767,689.46a10.37,10.37,0,1,1,0,20.73A10.29,10.29,0,0,1,756.55,699.77Z"/><path class="cls-1" d="M617.55,516.8q0,10.88-10.41,10.87-7.3,0-16-13.64-6.44-10.09-21-40.13-42.37-.67-95.82-19.74-42.58,44.46-58,44.46a9.64,9.64,0,0,1-7-2.94,9.5,9.5,0,0,1-3-7q0-4.54,7.38-10.37l14.69-11.58a252.82,252.82,0,0,0,23.83-21.62q-19.07-7.54-19.07-15.52a11.17,11.17,0,0,1,3-7.82,9.4,9.4,0,0,1,7.2-3.27q3.44,0,10.09,3.09,11.76,5.31,14,6.19,44.69-58.62,50.23-85.56,1.55-9.19,3.21-18.52,2.22-6.87,10.43-6.87c4.5,0,7.54,1.89,9.09,5.65a45.13,45.13,0,0,1,2.21,10.09,95.73,95.73,0,0,0,1.89,11.65Q555,387,585.29,451.94c3.4-.07,6.69-.26,9.87-.55l4.43-.33q12.31,0,12.31,11.14,0,11.48-12.75,11.47h-3.22q4.32,8.88,15,27.17Q617.56,512.36,617.55,516.8Zm-57.83-65.08a631.09,631.09,0,0,1-30.93-81.79,318.45,318.45,0,0,1-39.72,66.21A269.6,269.6,0,0,0,559.72,451.72Z"/><path class="cls-1" d="M526.14,459.18a68.83,68.83,0,0,1-14.34-2c-4.24,15.79-7.17,26.43-8.75,31.85q-6,20.36-13.66,41.24t-7.84,21.28q-3,10.19,7.22,9.56a14.77,14.77,0,0,0,9.79-3.93q3.35-3.23,6.3-10.84,9-23.57,18.69-56.85,3.23-11.06,8.28-30.13C529.9,459.35,528,459.29,526.14,459.18Z"/></svg>