<svg id="레이어_1" data-name="레이어 1" xmlns="http://www.w3.org/2000/svg" viewBox="0 0 1365.5 215.97"><defs><style>.cls-1,.cls-2{stroke:#000;stroke-miterlimit:10;}.cls-2{stroke-width:4px;}</style></defs><path class="cls-1" d="M295.68,215.44,349.59,53.52h57.92l53.68,161.92H415.34l-9.62-31.76H351.38l-9.62,31.76Zm100.2-64L379.11,97.13h-1.34l-16.55,54.35Z" transform="translate(-36 -20.15)"/><path class="cls-1" d="M477.29,53.52h68.89c36.23,0,59.94,20.57,59.94,54.79,0,22.37-10.29,38.25-27.73,46.52l33.1,60.61h-46.3l-28.63-53.9H519.79v53.9h-42.5Zm59.05,74.7c16.1,0,25.27-5.82,25.27-19.91,0-14.31-9.17-20.8-25.27-20.8H519.79v40.71Z" transform="translate(-36 -20.15)"/><path class="cls-1" d="M620.66,53.52H760.22V88H711.46V215.44h-42V88H620.66Z" transform="translate(-36 -20.15)"/><path class="cls-1" d="M777.44,53.52h68.89c36.23,0,59.94,20.57,59.94,54.79,0,22.37-10.29,38.25-27.73,46.52l33.1,60.61h-46.3l-28.63-53.9H819.94v53.9h-42.5Zm59,74.7c16.1,0,25.27-5.82,25.27-19.91,0-14.31-9.17-20.8-25.27-20.8H819.94v40.71Z" transform="translate(-36 -20.15)"/><path class="cls-1" d="M925.5,53.52h115.64V88H968v29.3h67.1V151.7H968V181h72.91v34.44H925.5Z" transform="translate(-36 -20.15)"/><path class="cls-1" d="M1128.14,86.39c-14.09,0-20.35,5.37-20.58,13-.22,8.27,7.38,13,22.37,16.1l13.42,3.13c34.89,7.38,50.32,24.38,50.54,49.21-.22,31.75-24.6,49.65-65.53,49.65-41.82,0-68.88-18.34-69.33-58.15h40.7c.67,15,11.19,23,28,23,14.54,0,22.37-6,22.59-14.53-.22-7.83-6.71-12.31-24.83-16.33l-16.32-3.58c-28.41-6.26-45.85-20.35-45.85-45.4-.23-30.64,26.84-51.22,64.86-51.22,38.91,0,63.29,20.8,63.52,52.34h-40.93C1149.83,92.66,1142.68,86.39,1128.14,86.39Z" transform="translate(-36 -20.15)"/><path class="cls-1" d="M1206.64,53.52H1346.2V88h-48.75V215.44h-42V88h-48.76Z" transform="translate(-36 -20.15)"/><path class="cls-1" d="M1357.61,196.21c-.22-11.85,9.62-21.47,21.7-21.47,11.4,0,21.69,9.62,21.69,21.47a22,22,0,0,1-21.69,21.69A21.43,21.43,0,0,1,1357.61,196.21Z" transform="translate(-36 -20.15)"/><path class="cls-2" d="M221.23,195.66q0,9.43-9,9.43-6.34,0-13.93-11.83-5.58-8.76-18.17-34.82-36.76-.58-83.13-17.12Q60,179.89,46.66,179.89a8.38,8.38,0,0,1-6.06-2.55,8.27,8.27,0,0,1-2.6-6.11q0-3.94,6.4-9l12.74-10.05a219,219,0,0,0,20.68-18.76Q61.28,126.89,61.28,120a9.69,9.69,0,0,1,2.59-6.78,8.18,8.18,0,0,1,6.26-2.84q3,0,8.75,2.68c6.8,3.07,10.83,4.86,12.12,5.37q38.76-50.85,43.57-74.23,1.35-8,2.79-16.06,1.92-6,9-6,5.86,0,7.89,4.9a38.7,38.7,0,0,1,1.92,8.76,85.68,85.68,0,0,0,1.63,10.1q9.15,37.19,35.4,93.48,4.42-.09,8.56-.48l3.85-.28q10.68,0,10.67,9.66,0,10-11.06,10h-2.79q3.75,7.69,13,23.56Q221.24,191.82,221.23,195.66ZM171.06,139.2a546.82,546.82,0,0,1-26.83-71,276.28,276.28,0,0,1-34.46,57.45A234,234,0,0,0,171.06,139.2Z" transform="translate(-36 -20.15)"/><path class="cls-2" d="M141.93,145.68a60,60,0,0,1-12.44-1.76c-3.68,13.7-6.22,22.93-7.59,27.63q-5.16,17.67-11.86,35.78t-6.79,18.46q-2.58,8.84,6.25,8.29a12.8,12.8,0,0,0,8.5-3.4q2.9-2.81,5.46-9.41,7.79-20.45,16.22-49.32,2.81-9.6,7.18-26.14C145.19,145.82,143.53,145.77,141.93,145.68Z" transform="translate(-36 -20.15)"/></svg>