<svg id="레이어_1" data-name="레이어 1" xmlns="http://www.w3.org/2000/svg" viewBox="0 0 1024 1024"><defs><style>.cls-1,.cls-2{fill:#fff;}.cls-1{stroke:#fff;stroke-miterlimit:10;}</style></defs><path class="cls-1" d="M12.23,822,61.28,674.69H114L162.82,822H121.11l-8.75-28.89H62.9L54.15,822Zm91.17-58.2L88.14,714.37H86.92L71.86,763.82Z"/><path class="cls-1" d="M177.48,674.69h62.68c33,0,54.53,18.72,54.53,49.86,0,20.35-9.36,34.8-25.23,42.33L299.58,822H257.45l-26-49H216.14v49H177.48Zm53.72,68c14.65,0,23-5.29,23-18.11,0-13-8.35-18.93-23-18.93H216.14v37Z"/><path class="cls-1" d="M307.92,674.69h127V706H390.54V822H352.29V706H307.92Z"/><path class="cls-1" d="M450.58,674.69h62.68c33,0,54.53,18.72,54.53,49.86,0,20.35-9.36,34.8-25.23,42.33L572.68,822H530.55l-26-49H489.24v49H450.58Zm53.72,68c14.65,0,23-5.29,23-18.11,0-13-8.35-18.93-23-18.93H489.24v37Z"/><path class="cls-1" d="M585.3,674.69H690.51V706H624v26.66h61V764H624v26.66H690.3V822h-105Z"/><path class="cls-1" d="M769.67,704.6c-12.82,0-18.52,4.89-18.72,11.81-.21,7.53,6.71,11.8,20.35,14.65l12.21,2.85c31.74,6.71,45.79,22.18,46,44.77-.2,28.9-22.39,45.18-59.63,45.18-38,0-62.68-16.69-63.08-52.91h37c.62,13.63,10.18,21,25.44,21,13.23,0,20.35-5.5,20.56-13.23-.21-7.12-6.11-11.19-22.59-14.86l-14.86-3.25c-25.84-5.7-41.72-18.52-41.72-41.31-.2-27.88,24.42-46.61,59-46.61,35.41,0,57.59,18.93,57.79,47.62H790.22C789.41,710.3,782.9,704.6,769.67,704.6Z"/><path class="cls-1" d="M841.1,674.69h127V706H923.72V822H885.46V706H841.1Z"/><path class="cls-1" d="M978.46,804.52c-.2-10.78,8.75-19.53,19.74-19.53,10.38,0,19.74,8.75,19.74,19.53a20,20,0,0,1-19.74,19.74A19.5,19.5,0,0,1,978.46,804.52Z"/><path class="cls-1" d="M715.15,457.91q0,20.58-19.72,20.58-13.84,0-30.42-25.83-12.18-19.12-39.69-76-80.27-1.26-181.52-37.38-80.67,84.22-109.86,84.22a18.3,18.3,0,0,1-13.24-5.56A18,18,0,0,1,315,404.56q0-8.61,14-19.64T356.83,363A478.62,478.62,0,0,0,402,322q-36.12-14.28-36.13-29.4a21.19,21.19,0,0,1,5.68-14.81,17.84,17.84,0,0,1,13.65-6.2q6.51,0,19.11,5.87,22.26,10,26.47,11.72,84.64-111,95.14-162.09,3-17.43,6.1-35.08,4.18-13,19.74-13Q564.55,79,569,89.71q2.52,6.3,4.2,19.12,1.9,15.75,3.57,22,20,81.21,77.3,204.16,9.65-.21,18.69-1.05l8.4-.63q23.32,0,23.31,21.1,0,21.75-24.15,21.74h-6.09q8.19,16.82,28.36,51.46Q715.15,449.5,715.15,457.91ZM605.59,334.62a1194.44,1194.44,0,0,1-58.59-155A603.4,603.4,0,0,1,471.75,305.1,511,511,0,0,0,605.59,334.62Z"/><path class="cls-1" d="M542,348.75c-8.94-.5-18.34-1.41-27.16-3.83-8,29.91-13.58,50.07-16.58,60.34Q487,443.83,472.35,483.39t-14.84,40.32q-5.64,19.27,13.66,18.1,11.65-.7,18.56-7.44,6.33-6.11,11.93-20.54,17-44.64,35.41-107.7,6.12-21,15.69-57.09C549.1,349.07,545.47,349,542,348.75Z"/><path class="cls-2" d="M10.74,882H32.35c14.08,0,21,7.88,21,19,0,8.17-3.68,14.37-11.06,17.09l13.41,24.55H45.26L32.94,919.79H20v22.87H10.74Zm20.69,29.83c9,0,12.65-3.94,12.65-10.81s-3.68-11.14-12.65-11.14H20v22Z"/><path class="cls-2" d="M60.29,920.21c0-14,8.38-23.63,21-23.63,10.39,0,20.19,6.45,20.19,22.87v3.18H69.18c.25,8.63,5.32,13.58,12.81,13.58,5.11,0,8.38-2.18,9.89-5h9.05c-2,7.38-9.05,12.32-19,12.32C68.51,943.58,60.29,934.36,60.29,920.21Zm32.43-4.28c0-6.95-4.44-12-11.31-12-7.17,0-11.82,5.53-12.15,12Z"/><path class="cls-2" d="M127.32,903.62c-5.11,0-8.8,2.68-8.72,6.11-.08,2.68,2.1,4.61,7.13,5.78l7.2,1.68c8.38,1.84,12.4,5.86,12.48,12.31-.08,8.21-6.95,14.08-18.6,14.08-10.89,0-17.42-4.86-18.51-13.32h9.13c.76,4.1,3.94,6.11,9.3,6.11,5.78,0,9.47-2.34,9.55-6.2-.08-2.93-2.26-4.85-7-5.94l-7.12-1.51c-8.21-1.84-12.48-6.2-12.48-12.48,0-8.13,7-13.66,17.59-13.66,10.14,0,16.42,5.19,17.35,13H136C135.11,906,132.26,903.62,127.32,903.62Z"/><path class="cls-2" d="M175.41,904.29h-9.3v25c0,5.11,2.59,6,5.44,6.12,1.26,0,3.27-.17,4.53-.25v7.79a43.33,43.33,0,0,1-5.62.33c-7,0-13.32-3.85-13.23-12.14V904.29h-6.71v-7.12h6.71V886.28h8.88v10.89h9.3Z"/><path class="cls-2" d="M215,942.66h-9.21V882H215Z"/><path class="cls-2" d="M235.56,942.66h-9V897.17h8.63v7.45h.51c2.17-4.86,6.61-8,13.4-8,9.38,0,15.5,5.86,15.5,17.17v28.91h-8.88V914.84c0-6.61-3.6-10.55-9.64-10.55s-10.55,4.1-10.55,11.39Z"/><path class="cls-2" d="M292.61,942.66,314.39,882H325l21.87,60.66h-9.8l-5.53-16H307.94l-5.53,16ZM328.89,919l-9-25.89h-.42L310.62,919Z"/><path class="cls-2" d="M353.85,897.17h8.63v7.2H363a11.84,11.84,0,0,1,11.56-7.87c1.09,0,2.85.08,3.77.16v8.55a25.47,25.47,0,0,0-4.69-.5c-6.2,0-10.81,4.27-10.81,10.22v27.73h-9Z"/><path class="cls-2" d="M408.94,904.29h-9.3v25c0,5.11,2.6,6,5.44,6.12,1.26,0,3.27-.17,4.53-.25v7.79a43.33,43.33,0,0,1-5.62.33c-7,0-13.32-3.85-13.23-12.14V904.29h-6.7v-7.12h6.7V886.28h8.88v10.89h9.3Z"/><path class="cls-2" d="M421.76,960h-7.13l4.44-23.12h9.39Z"/><path class="cls-2" d="M486.56,889.63c-10.22,0-18.1,8-18.1,22.7S476.25,935,487,935c9.67,0,16.08-6.11,16.25-15.83H488.32v-7.62h23.87v6.87c0,15.33-10.55,25-25.3,25-16.42,0-27.56-12-27.56-31.17,0-19.35,11.48-31.17,27.14-31.17,13.16,0,23.21,8.21,25.31,20h-9.47C500.05,894,494.6,889.63,486.56,889.63Z"/><path class="cls-2" d="M522.08,897.17h8.63v7.2h.5a11.85,11.85,0,0,1,11.56-7.87c1.09,0,2.85.08,3.77.16v8.55a25.26,25.26,0,0,0-4.69-.5c-6.2,0-10.81,4.27-10.81,10.22v27.73h-9Z"/><path class="cls-2" d="M549.77,920.12c0-14.16,8.38-23.54,21.28-23.54s21.19,9.38,21.19,23.54-8.37,23.46-21.19,23.46S549.77,934.2,549.77,920.12Zm33.43,0c0-8.71-3.94-16.17-12.15-16.17-8.38,0-12.32,7.46-12.32,16.17s3.94,16,12.32,16C579.26,936.12,583.2,928.83,583.2,920.12Z"/><path class="cls-2" d="M596.14,897.17h9.22l8.88,33.34h.5l8.88-33.34h9.22l8.79,33.17h.5l8.8-33.17h9.22l-13.32,45.49h-9.14l-9.21-32.76h-.67l-9.13,32.76h-9.22Z"/><path class="cls-2" d="M698.43,942.66h-9.21V882h9.21Z"/><path class="cls-2" d="M719,942.66h-9V897.17h8.63v7.45h.51c2.17-4.86,6.62-8,13.4-8,9.38,0,15.5,5.86,15.5,17.17v28.91h-8.88V914.84c0-6.61-3.6-10.55-9.63-10.55S719,908.39,719,915.68Z"/><path class="cls-2" d="M780.62,882h37.62v8h-28.4v18.35h25.72v7.87H789.84v26.48h-9.22Z"/><path class="cls-2" d="M822.47,920.12c0-14.16,8.37-23.54,21.28-23.54s21.19,9.38,21.19,23.54-8.38,23.46-21.19,23.46S822.47,934.2,822.47,920.12Zm33.42,0c0-8.71-3.93-16.17-12.14-16.17-8.38,0-12.32,7.46-12.32,16.17s3.94,16,12.32,16C852,936.12,855.89,928.83,855.89,920.12Z"/><path class="cls-2" d="M873.74,897.17h8.63v7.2h.5a11.85,11.85,0,0,1,11.56-7.87c1.09,0,2.85.08,3.77.16v8.55a25.36,25.36,0,0,0-4.69-.5c-6.2,0-10.81,4.27-10.81,10.22v27.73h-9Z"/><path class="cls-2" d="M901.43,920.21c0-14,8.38-23.63,21-23.63,10.38,0,20.19,6.45,20.19,22.87v3.18H910.31c.25,8.63,5.32,13.58,12.82,13.58,5.11,0,8.37-2.18,9.88-5h9c-2,7.38-9,12.32-19,12.32C909.64,943.58,901.43,934.36,901.43,920.21Zm32.42-4.28c0-6.95-4.44-12-11.31-12-7.16,0-11.81,5.53-12.15,12Z"/><path class="cls-2" d="M968.45,903.62c-5.11,0-8.8,2.68-8.71,6.11-.09,2.68,2.09,4.61,7.12,5.78l7.2,1.68c8.38,1.84,12.4,5.86,12.49,12.31-.09,8.21-7,14.08-18.6,14.08-10.89,0-17.43-4.86-18.52-13.32h9.13c.76,4.1,3.94,6.11,9.3,6.11,5.78,0,9.47-2.34,9.55-6.2-.08-2.93-2.26-4.85-7-5.94l-7.12-1.51c-8.21-1.84-12.49-6.2-12.49-12.48,0-8.13,7-13.66,17.6-13.66,10.13,0,16.42,5.19,17.34,13h-8.63C976.24,906,973.39,903.62,968.45,903.62Z"/><path class="cls-2" d="M1016.54,904.29h-9.3v25c0,5.11,2.6,6,5.45,6.12,1.25,0,3.26-.17,4.52-.25v7.79a43.15,43.15,0,0,1-5.61.33c-7,0-13.32-3.85-13.24-12.14V904.29h-6.7v-7.12h6.7V886.28h8.88v10.89h9.3Z"/></svg>